<?xml version="1.0" encoding="utf-8"?>
<!-- Generator: Adobe Illustrator 24.3.0, SVG Export Plug-In . SVG Version: 6.00 Build 0)  -->
<svg version="1.1" id="Layer_1" xmlns="http://www.w3.org/2000/svg" xmlns:xlink="http://www.w3.org/1999/xlink" x="0px" y="0px"
	 viewBox="0 0 1197.1 40" style="enable-background:new 0 0 1197.1 40;" xml:space="preserve">
<style type="text/css">
	.st0{fill:#862165;}
	.st1{fill:#83BA3B;}
	.st2{fill:#1A1F71;}
	.st3{fill:#231F20;}
	.st4{fill:#F79410;}
	.st5{fill:#FF5F00;}
	.st6{fill:#EB001B;}
	.st7{fill:#F79E1B;}
	.st8{fill:#4D4D4D;}
	.st9{fill:#C40233;}
	.st10{fill:#0A95FF;}
	.st11{fill:#F7931A;}
</style>
<g>
	<path class="st0" d="M559.5,10l6.2-1v23.5h-6.2V10z M568.5,10v22.4h6.2V8.9L568.5,10z M550.8,32.4h6.1V15.2h-6.1V32.4z M510,17.6
		c-0.7,0-2.6-0.1-2.6-1.7s2.6-2,3.6-2c1.9,0.1,3.7,0.4,5.5,1l1.6,0.5h0.1v-5.2h-0.1c-2.6-0.9-5.3-1.3-8-1.2c-7,0-9.5,3.9-9.5,7.4
		c0,2,0.9,6.6,8.8,7.2c0.7,0,2.5,0.1,2.5,1.7s-1.4,2.2-3.9,2.2c-2.4,0-4.8-0.4-7-1.3v5.5c2.7,0.6,5.5,0.9,8.2,0.9
		c6.8,0,9.8-3.8,9.8-7.5S515.7,18.1,510,17.6z M547.2,14.9c-5.7,0.2-8.5,2.8-8.5,7.8v9.7h6.2v-7.9c0-3.1,0.4-4.3,4-4.4v-5
		L547.2,14.9z M530.5,15.2c-0.8,2.2-2,4.2-3.5,6V8.9l-6.4,1.2v22.2h6.4v-6.9c1.3,2.1,2.2,4.5,2.8,6.9h7.6c-0.7-3.1-4.1-8.8-4.1-8.8
		c2-2.5,3.5-5.3,4.4-8.3L530.5,15.2z M553.8,13.6c1.7,0,3.1-1.4,3.1-3.1c0-1.7-1.4-3-3-3c0,0,0,0-0.1,0c-1.7,0-3,1.3-3.1,3
		C550.8,12.2,552.1,13.5,553.8,13.6z"/>
	<path class="st1" d="M776.7,11.6c-1.5-1-3.7-1.5-6.6-1.5h-7.6l-2.8,15.4h-10l0.7-3.5h6L757,18h-6l0.7-3.5h6.2l0.8-4.5h-12.6
		l-2.7,14.6h-4.6l2.7-14.6h-6.6l-2.7,14.6h-4.5l2.7-14.6h-6.6L721,25.5h-10.1l0.6-3.5h6.1l0.7-3.9h-6.1l0.6-3.5h6.3L720,10h-39.3
		l-2.2,12.3L674,10.1h-6.8L663.5,30h6.5l2.2-12.6l4.3,12.6H700l2.9-15.4h3.7L703.6,30h61.6l1.8-9.7l2.9,9.7h6.5l-3-8l0.7-0.1
		c1.4-0.2,2.6-1,3.5-2.1c0.9-1.2,1.3-2.6,1.2-4C778.9,14.1,778.1,12.5,776.7,11.6z M694.3,25.5h-10L685,22h6.3L692,18h-6.2l0.6-3.5
		h10L694.3,25.5z M771.3,18.7c-0.9,0.5-1.9,0.8-2.9,0.7h-1.3l1-5.3h1c0.8-0.1,1.7,0.1,2.4,0.5c0.6,0.4,1,1.1,0.9,1.9
		C772.5,17.4,772.1,18.2,771.3,18.7L771.3,18.7z"/>
	<path class="st1" d="M781.8,28.7l-0.2-3.1l1.4-0.1c0.2,0,0.4,0,0.6,0.1c0.2,0,0.3,0.1,0.4,0.3c0.1,0.1,0.1,0.3,0.2,0.5
		c0,0.2,0,0.4-0.2,0.6c-0.2,0.2-0.4,0.3-0.7,0.3c0.1,0,0.2,0.1,0.3,0.1c0.1,0.1,0.3,0.3,0.4,0.4l0.6,0.8l-0.5,0l-0.4-0.6
		c-0.1-0.1-0.2-0.3-0.3-0.4c-0.1-0.1-0.1-0.1-0.2-0.2c-0.1,0-0.1-0.1-0.2-0.1c-0.1,0-0.2,0-0.2,0l-0.5,0l0.1,1.4L781.8,28.7z
		 M782.1,26.9l0.9,0c0.2,0,0.3,0,0.4-0.1c0.1,0,0.2-0.1,0.2-0.2c0.1-0.1,0.1-0.2,0.1-0.3c0-0.1-0.1-0.3-0.2-0.4
		c-0.1-0.1-0.3-0.1-0.5-0.1l-1,0L782.1,26.9z"/>
	<path class="st1" d="M782.7,24.1c-1.6,0.1-2.9,1.5-2.8,3.1c0.1,1.6,1.5,2.9,3.1,2.8s2.9-1.5,2.8-3.1l0,0
		C785.7,25.3,784.3,24.1,782.7,24.1C782.7,24.1,782.7,24.1,782.7,24.1z M780.4,27.2c-0.1-1.3,0.9-2.5,2.2-2.6
		c1.3-0.1,2.5,0.9,2.6,2.2c0,0,0,0,0,0V27c0,1.3-1.1,2.4-2.4,2.4l0,0C781.6,29.5,780.5,28.5,780.4,27.2L780.4,27.2z"/>
	<path class="st2" d="M29.8,8l-5.7,11.5c-1.2,2.5-2.4,5-3.4,7.5h-0.1c-0.2-2.5-0.3-4.9-0.6-7.5l-0.6-6L19,8H5.7v0.8h0.5
		c6.2,0.3,7.7,3.9,8.1,5.8l0.1,1.1v-0.1l2.2,16.7h6.2L35.9,8H29.8z"/>
	<polygon class="st2" points="38.9,7.9 34.1,32.2 39.5,32.2 44.3,7.9 	"/>
	<path class="st2" d="M55.3,17.9c-2.1-1.1-3.7-2-3.7-3.4c0-1.3,1.3-2.7,3.8-2.7c1.4-0.1,2.9,0.4,4,1.3l2.4-4.3
		C60,7.8,58,7.4,55.9,7.5c-5.5,0-10,3-10,7.9c0,3.2,2.5,5.1,5.2,6.5c2.3,1.1,3.4,2.1,3.4,3.4c0,1.9-1.9,2.8-4,2.8
		c-2.1,0-4.1-0.5-5.9-1.5l-2.2,3.7c2.2,1.5,4.9,2.3,7.6,2.3c5.6,0,10.3-2.8,10.3-8.2C60.3,21.4,58.4,19.5,55.3,17.9z"/>
	<path class="st2" d="M78.6,7.9h-6.9L59.4,32.2h5.7l3-6.3h7.3l0.5,6.3h5.7L78.6,7.9z M69.7,21.9l2.5-5.2c0.7-1.4,1.4-3.3,2-4.8h0.1
		c0.1,1.5,0.3,3.4,0.4,4.8l0.5,5.2H69.7z"/>
	<path class="st3" d="M221.5,39.5v0.1h0.1c0,0,0,0,0.1,0c0,0,0,0,0,0c0,0,0,0,0,0C221.7,39.5,221.6,39.5,221.5,39.5L221.5,39.5
		L221.5,39.5z M221.6,39.4c0,0,0.1,0,0.1,0c0,0,0,0.1,0,0.1c0,0,0,0.1,0,0.1c0,0-0.1,0-0.1,0l0.1,0.1h-0.1l-0.1-0.1h0v0.1h-0.1v-0.4
		L221.6,39.4L221.6,39.4z M221.6,39.9c0,0,0.1,0,0.1,0c0,0,0.1,0,0.1-0.1c0,0,0.1-0.1,0.1-0.1c0-0.1,0-0.2,0-0.3c0,0,0-0.1-0.1-0.1
		c0,0-0.1-0.1-0.1-0.1c0,0-0.1,0-0.1,0c0,0-0.1,0-0.1,0c0,0-0.1,0-0.1,0.1c-0.1,0.1-0.1,0.2-0.1,0.4c0,0,0,0.1,0.1,0.1
		c0,0,0.1,0.1,0.1,0.1C221.5,39.9,221.6,39.9,221.6,39.9 M221.6,39.2c0.1,0,0.2,0,0.3,0.1c0.1,0.1,0.2,0.3,0.1,0.5
		c0,0-0.1,0.1-0.1,0.1c0,0-0.1,0.1-0.1,0.1c-0.1,0-0.1,0-0.2,0c-0.1,0-0.1,0-0.2,0c-0.1,0-0.1-0.1-0.1-0.1c0,0-0.1-0.1-0.1-0.1
		c-0.1-0.2,0-0.3,0.1-0.5c0,0,0.1-0.1,0.1-0.1C221.5,39.2,221.5,39.2,221.6,39.2 M182.2,37.7c0-0.7,0.6-1.2,1.3-1.2
		c0.7,0,1.2,0.6,1.2,1.3c0,0.7-0.6,1.2-1.3,1.2c-0.7,0-1.3-0.6-1.3-1.2C182.2,37.7,182.2,37.7,182.2,37.7 M185.7,37.7v-2.1h-0.9v0.5
		c-0.3-0.4-0.8-0.6-1.3-0.6c-1.2,0.1-2.2,1.1-2.1,2.3c0.1,1.1,1,2.1,2.1,2.1c0.5,0,1-0.2,1.3-0.6v0.5h0.9L185.7,37.7L185.7,37.7z
		 M216.7,37.7c0-0.7,0.6-1.2,1.3-1.2c0.7,0,1.2,0.6,1.2,1.3c0,0.7-0.6,1.2-1.3,1.2c-0.7,0-1.3-0.6-1.3-1.2
		C216.6,37.7,216.6,37.7,216.7,37.7 M220.1,37.7v-3.8h-0.9v2.2c-0.3-0.4-0.8-0.6-1.3-0.6c-1.2,0.1-2.2,1.1-2.1,2.3
		c0.1,1.1,1,2.1,2.1,2.1c0.5,0,1-0.2,1.3-0.6v0.5h0.9L220.1,37.7z M197,36.3c0.6,0,1.1,0.4,1.1,1h-2.2C196,36.7,196.5,36.2,197,36.3
		 M197.1,35.4c-1.2,0.1-2.2,1.1-2.1,2.3c0.1,1.2,1,2.1,2.2,2.1c0.6,0,1.2-0.2,1.7-0.6l-0.4-0.7c-0.3,0.3-0.8,0.4-1.2,0.4
		c-0.6,0.1-1.2-0.4-1.3-1h3.1c0-0.1,0-0.2,0-0.4c0.1-1.1-0.7-2.1-1.8-2.2C197.2,35.4,197.1,35.4,197.1,35.4 M208.1,37.7
		c0-0.7,0.6-1.2,1.3-1.2c0.7,0,1.2,0.6,1.2,1.3c0,0.7-0.6,1.2-1.3,1.2c-0.7,0-1.3-0.5-1.3-1.2C208.1,37.7,208.1,37.7,208.1,37.7
		 M211.5,37.7v-2.1h-0.9v0.5c-0.3-0.4-0.8-0.6-1.3-0.6c-1.2,0.1-2.2,1.1-2.1,2.3c0.1,1.1,1,2.1,2.1,2.1c0.5,0,1-0.2,1.3-0.6v0.5h0.9
		L211.5,37.7L211.5,37.7z M203,37.7c0,1.2,0.9,2.2,2,2.2c0.1,0,0.1,0,0.2,0c0.6,0,1.1-0.2,1.5-0.5l-0.4-0.7
		c-0.3,0.2-0.7,0.4-1.1,0.4c-0.7,0-1.3-0.7-1.3-1.4c0-0.7,0.6-1.2,1.3-1.3c0.4,0,0.8,0.1,1.1,0.4l0.4-0.7c-0.4-0.4-1-0.5-1.5-0.5
		c-1.2-0.1-2.2,0.8-2.2,2C203,37.5,203,37.6,203,37.7 M214.8,35.4c-0.5,0-0.9,0.2-1.1,0.6v-0.5h-0.9v4.2h0.9v-2.4
		c0-0.7,0.3-1.1,0.9-1.1c0.2,0,0.4,0,0.6,0.1l0.3-0.9C215.2,35.5,215,35.4,214.8,35.4 M190.2,35.9c-0.5-0.3-1.1-0.5-1.7-0.4
		c-1.1,0-1.8,0.5-1.8,1.3c0,0.7,0.5,1.1,1.5,1.2l0.4,0.1c0.5,0.1,0.7,0.2,0.7,0.4c0,0.3-0.3,0.5-1,0.5c-0.5,0-1-0.1-1.4-0.4
		l-0.4,0.7c0.5,0.4,1.2,0.6,1.8,0.5c1.2,0,1.9-0.6,1.9-1.4c0-0.7-0.6-1.1-1.5-1.3l-0.4-0.1c-0.4-0.1-0.7-0.1-0.7-0.4
		c0-0.3,0.3-0.5,0.8-0.5c0.5,0,0.9,0.1,1.3,0.4L190.2,35.9L190.2,35.9z M202,35.4c-0.5,0-0.9,0.2-1.1,0.6v-0.5H200v4.2h0.9v-2.4
		c0-0.7,0.3-1.1,0.9-1.1c0.2,0,0.4,0,0.6,0.1l0.3-0.9C202.5,35.5,202.3,35.4,202,35.4 M194.2,35.5h-1.5v-1.3h-0.9v1.3h-0.9v0.8h0.9
		v1.9c0,1,0.4,1.6,1.5,1.6c0.4,0,0.8-0.1,1.1-0.3l-0.3-0.8c-0.2,0.1-0.5,0.2-0.8,0.2c-0.5,0-0.6-0.3-0.6-0.7v-1.9h1.5L194.2,35.5z
		 M180.5,39.8v-2.6c0.1-0.9-0.6-1.6-1.5-1.7c-0.1,0-0.1,0-0.2,0c-0.6,0-1.2,0.2-1.5,0.8c-0.3-0.5-0.8-0.8-1.4-0.8
		c-0.5,0-1,0.2-1.2,0.6v-0.5h-0.9v4.2h0.9v-2.3c-0.1-0.5,0.3-1,0.8-1.1c0.1,0,0.1,0,0.2,0c0.6,0,0.9,0.4,0.9,1.1v2.3h0.9v-2.3
		c-0.1-0.5,0.3-1,0.9-1.1c0.1,0,0.1,0,0.2,0c0.6,0,0.9,0.4,0.9,1.1v2.3L180.5,39.8z"/>
	<path class="st4" d="M222.1,25.7v-0.6h-0.2l-0.2,0.4l-0.2-0.4h-0.2v0.6h0.1v-0.5l0.2,0.4h0.1l0.2-0.4v0.5L222.1,25.7L222.1,25.7z
		 M221,25.7v-0.5h0.2v-0.1h-0.5v0.1h0.2v0.5L221,25.7L221,25.7z"/>
	<path class="st5" d="M203.8,28.4h-13.9v-25h13.9V28.4z"/>
	<path class="st6" d="M190.8,15.9c0-4.9,2.2-9.5,6.1-12.5c-6.9-5.4-16.9-4.2-22.3,2.7s-4.2,16.9,2.7,22.3c5.8,4.5,13.9,4.5,19.6,0
		C193,25.4,190.8,20.8,190.8,15.9"/>
	<path class="st7" d="M222.5,15.9c0,8.8-7.1,15.9-15.9,15.9c-3.6,0-7-1.2-9.8-3.4c6.9-5.4,8.1-15.4,2.7-22.3c-0.8-1-1.7-1.9-2.7-2.7
		c6.9-5.4,16.9-4.2,22.3,2.7C221.3,8.9,222.5,12.3,222.5,15.9"/>
	<path class="st8" d="M909.4,15.2c-0.6-0.3-1.3-0.4-1.9-0.4h-2.3c-2.6,0-4.8,2.1-4.8,4.7c0,2.6,2.1,4.8,4.7,4.8c0,0,0,0,0,0h2.3
		c2.6,0,4.7-2.1,4.7-4.7C912.2,17.7,911.1,16,909.4,15.2z M906.3,21.6c-1.1,0-2.1-0.9-2.1-2.1s0.9-2.1,2.1-2.1
		c1.1,0,2.1,0.9,2.1,2.1c0,0,0,0,0,0C908.3,20.7,907.4,21.6,906.3,21.6C906.3,21.6,906.3,21.6,906.3,21.6L906.3,21.6z"/>
	<path class="st8" d="M893.6,28.6c0-1.2-1-2.2-2.2-2.2c-1.2,0-2.2,1-2.2,2.2s1,2.2,2.2,2.2l0,0C892.7,30.7,893.6,29.8,893.6,28.6z"
		/>
	<path class="st8" d="M909.3,7.8C909.3,6.2,908,5,906.4,5h-28.3c-1.4,0-2.5,1-2.8,2.3c0,0.2-0.1,0.4-0.1,0.6V14h2.5l4-4h4
		c0.3-2,2.1-3.5,4.1-3.2c2,0.3,3.5,2.1,3.2,4.1s-2.1,3.5-4.1,3.2c-1.5-0.2-2.7-1.2-3.1-2.6h-3.4l-4,4h-3.2v3.5h6.8
		c0.4-2,2.4-3.3,4.4-2.9c2,0.4,3.3,2.4,2.9,4.4c-0.4,2-2.4,3.3-4.4,2.9c-1.4-0.3-2.6-1.4-2.9-2.9h-6.8v3.7h4.3l3.5,3.5h4.9
		c0.4-2,2.4-3.3,4.4-2.9c2,0.4,3.3,2.4,2.9,4.4s-2.4,3.3-4.4,2.9c-1.4-0.3-2.6-1.4-2.9-2.9h-5.5l-3.5-3.5h-3.6v6.2
		c0,1.6,1.3,2.9,2.9,2.9l0,0h28.3c1.6,0,2.9-1.3,2.9-2.9c0,0,0,0,0,0v-6c-0.6,0.2-1.3,0.3-1.9,0.3h-2.3c-3.8,0-6.8-3.1-6.8-6.8
		s3.1-6.8,6.8-6.8h2.3c0.7,0,1.3,0.1,1.9,0.3V7.9C909.4,7.9,909.4,7.8,909.3,7.8z"/>
	<circle class="st8" cx="889.3" cy="10.5" r="2.2"/>
	<circle class="st8" cx="885.6" cy="19.8" r="2.2"/>
	<path class="st8" d="M929.6,16h-4.8v3h4.6v2.3h-4.6V25h4.8v2.3h-7.5V13.8h7.5V16z"/>
	<path class="st8" d="M931.6,21.4h5.2v2.3h-5.2V21.4z"/>
	<path class="st8" d="M944.6,27.2h-2l-4.7-13.5h2.8l3,9.2l3.3-9.3h1.5l3.1,9.3l3.2-9.2h2.8l-5,13.5h-2l-2.9-8.5L944.6,27.2z"/>
	<path class="st8" d="M964.7,18.5h2.5v8.7h-2.5v-1.1c-0.6,0.9-1.6,1.4-2.7,1.4c-2.5,0-4.5-2-4.5-4.4c0-0.1,0-0.2,0-0.3
		c-0.2-2.4,1.7-4.5,4.1-4.6c0.1,0,0.2,0,0.2,0c1.1-0.1,2.2,0.5,2.8,1.4L964.7,18.5z M960.1,22.8c0,1.3,1.1,2.4,2.5,2.4
		s2.4-1.1,2.4-2.5c0-1.3-1.1-2.4-2.4-2.4C961.2,20.4,960.1,21.4,960.1,22.8C960.1,22.8,960.1,22.8,960.1,22.8z"/>
	<path class="st8" d="M971.9,12.5v14.7h-2.5V12.5H971.9z"/>
	<path class="st8" d="M976.7,12.5v14.7h-2.5V12.5H976.7z"/>
	<path class="st8" d="M987.6,24.8c-0.7,1.7-2.4,2.8-4.3,2.7c-1.2,0.1-2.4-0.4-3.4-1.2c-0.9-0.9-1.4-2.1-1.4-3.4
		c0-1.3,0.4-2.5,1.3-3.4c0.9-0.8,2.1-1.3,3.3-1.2c1.3-0.1,2.6,0.5,3.4,1.4c0.7,1,1.1,2.2,1,3.4v0.2h-6.5c0,0.5,0.1,1,0.4,1.5
		c0.4,0.5,1.1,0.9,1.8,0.8c0.8,0,1.6-0.4,2-1.1L987.6,24.8z M985.4,21.7c-0.2-1.1-1.3-1.9-2.4-1.7c-0.9,0.1-1.6,0.8-1.7,1.7H985.4z"
		/>
	<path class="st8" d="M992.1,20.6v6.6h-2.5v-6.6h-1v-2.1h1v-3h2.5v3h1.7v2.1L992.1,20.6z"/>
	<g>
		<g>
			<g>
				<path class="st9" d="M322.2,6.4c-1.7,0-3.1,1.4-3.1,3.1c0,1.7,1.4,3.1,3.1,3.1c1.7,0,3.1-1.4,3.1-3.1
					C325.3,7.8,323.9,6.4,322.2,6.4z M322.2,11.6c-1.1,0-2.1-0.9-2.1-2.1s0.9-2.1,2.1-2.1s2.1,0.9,2.1,2.1S323.4,11.6,322.2,11.6z"
					/>
				<path class="st9" d="M337,17.7l2-2.5h2.3c0.2,0,0.4-0.1,0.5-0.4c0.1-0.2,0-0.4-0.2-0.6l-19-11.7c-0.2-0.1-0.4-0.1-0.5,0
					l-19,11.7c-0.2,0.1-0.3,0.3-0.2,0.6c0.1,0.2,0.3,0.4,0.5,0.4h2.3l2,2.5V31l-2,2.5h-2.2c-0.3,0-0.5,0.2-0.5,0.5v3
					c0,0.3,0.2,0.5,0.5,0.5h37.9c0.3,0,0.5-0.2,0.5-0.5v-3c0-0.3-0.2-0.5-0.5-0.5H339l-2-2.5V17.7z M327,33.5l-2-2.5V17.7l2-2.5h2.3
					l2,2.5V31l-2,2.5H327z M315.1,33.5l-2-2.5V17.7l2-2.5h2.3l2,2.5V31l-2,2.5H315.1z M308.4,18h3.7v12.7h-3.7V18z M320.4,18h3.7
					v12.7h-3.7V18z M324.3,17h-4.2l-1.5-1.8h7.1L324.3,17z M320.1,31.7h4.2l1.5,1.8h-7.1L320.1,31.7z M332.3,18h3.7v12.7h-3.7V18z
					 M336.3,17h-4.2l-1.5-1.8h7.1L336.3,17z M322.2,3.6l17.3,10.6H305L322.2,3.6z M313.8,15.2l-1.5,1.8h-4.2l-1.5-1.8H313.8z
					 M308.2,31.7h4.2l1.5,1.8h-7.1L308.2,31.7z M340.7,36.5h-36.9v-2h36.9V36.5z M330.6,33.5l1.5-1.8h4.2l1.5,1.8H330.6z"/>
			</g>
		</g>
		<g>
			<g>
				<path class="st10" d="M349.5,4.7c0.8,0,2.5,0,3.6,1.1c0.9,0.9,1,2,1,2.6c0,0.5-0.1,1.2-0.5,1.8c-0.4,0.6-0.8,0.9-1.2,1
					c0.7,0.1,1.4,0.4,1.9,0.9c0.5,0.5,0.9,1.3,0.9,2.5c0,1.4-0.5,2.3-1.1,2.8c-1.2,1.1-2.8,1.2-3.7,1.2h-5.3v-14H349.5z M348.4,10.4
					h0.5c0.4,0,1.2-0.1,1.6-0.4c0.3-0.2,0.6-0.6,0.6-1.2c0-0.6-0.3-1-0.5-1.2c-0.5-0.4-1.1-0.4-1.7-0.4h-0.5V10.4z M348.4,16.2h0.8
					c0.8,0,1.8,0,2.4-0.6c0.3-0.3,0.5-0.7,0.5-1.2c0-0.6-0.2-0.9-0.4-1.1c-0.6-0.5-1.7-0.5-2.3-0.5h-0.9V16.2z"/>
				<path class="st10" d="M364.5,9.4h3v9.4h-3v-1.1c-0.8,1.3-2,1.4-2.8,1.4c-1.3,0-2.5-0.3-3.5-1.4c-1-1-1.4-2.3-1.4-3.5
					c0-1.6,0.6-2.9,1.4-3.8c0.8-0.8,2-1.3,3.3-1.3c0.8,0,2.1,0.2,2.9,1.4V9.4z M360.7,12.3c-0.3,0.3-0.7,0.9-0.7,1.7
					c0,0.8,0.4,1.4,0.6,1.7c0.4,0.4,1.1,0.7,1.8,0.7c0.6,0,1.2-0.3,1.6-0.7c0.4-0.4,0.7-1,0.7-1.8c0-0.7-0.3-1.3-0.7-1.7
					c-0.5-0.4-1.1-0.7-1.7-0.7C361.7,11.7,361.1,11.9,360.7,12.3z"/>
				<path class="st10" d="M369.9,9.4h3v1.1c0.9-1.2,2-1.4,2.9-1.4c0.8,0,1.9,0.1,2.7,0.9c0.9,0.9,0.9,2,0.9,2.8v5.9h-3v-4.8
					c0-0.6,0-1.4-0.5-1.9c-0.2-0.2-0.6-0.4-1.2-0.4c-0.6,0-1,0.3-1.3,0.5c-0.5,0.5-0.6,1.2-0.6,1.8v4.8h-3V9.4z"/>
				<path class="st10" d="M384.9,3.4v9.4l3.4-3.4h4l-4.5,4.2l4.8,5.1h-4.1l-3.6-4v4h-3V3.4H384.9z"/>
			</g>
			<g>
				<path class="st10" d="M351.5,25v11.3h-3.2V25h-3v-2.7h9.3V25H351.5z"/>
				<path class="st10" d="M354.8,26.9h3v1.5c0.3-0.5,0.7-1,1.2-1.3c0.5-0.3,1-0.4,1.6-0.4c0.4,0,0.7,0,1,0.1l-0.2,2.8
					c-0.4-0.2-0.8-0.3-1.4-0.3c-0.7,0-1.1,0.2-1.5,0.6c-0.7,0.7-0.7,1.7-0.7,2.5v3.8h-3V26.9z"/>
				<path class="st10" d="M369.6,26.9h3v9.4h-3v-1.1c-0.8,1.3-2,1.4-2.8,1.4c-1.3,0-2.5-0.3-3.5-1.4c-1-1-1.4-2.3-1.4-3.5
					c0-1.6,0.6-2.9,1.4-3.8c0.8-0.8,2-1.3,3.3-1.3c0.8,0,2.1,0.2,2.9,1.4V26.9z M365.7,29.8c-0.3,0.3-0.7,0.9-0.7,1.7
					s0.4,1.4,0.6,1.7c0.4,0.4,1.1,0.7,1.8,0.7c0.6,0,1.2-0.3,1.6-0.7c0.4-0.4,0.7-1,0.7-1.8c0-0.7-0.3-1.3-0.7-1.7
					c-0.5-0.4-1.1-0.7-1.7-0.7C366.7,29.2,366.1,29.4,365.7,29.8z"/>
				<path class="st10" d="M374.7,26.9h3V28c0.9-1.2,2-1.4,2.9-1.4c0.8,0,1.9,0.1,2.7,0.9c0.9,0.9,0.9,2,0.9,2.8v5.9h-3v-4.8
					c0-0.6,0-1.4-0.5-1.9c-0.2-0.2-0.6-0.4-1.2-0.4c-0.6,0-1,0.3-1.3,0.5c-0.5,0.5-0.6,1.2-0.6,1.8v4.8h-3V26.9z"/>
				<path class="st10" d="M391.9,29.3c-0.5-0.3-1.1-0.5-1.7-0.5c-0.3,0-0.7,0.1-0.9,0.3c-0.1,0.1-0.2,0.3-0.2,0.4
					c0,0.2,0.1,0.3,0.3,0.4c0.2,0.1,0.5,0.2,0.9,0.3l0.8,0.3c0.5,0.2,1.1,0.4,1.6,0.8c0.5,0.5,0.7,1.1,0.7,1.8c0,1.2-0.5,2-1,2.5
					c-0.9,0.9-2.1,1.1-3,1.1c-1.3,0-2.6-0.3-3.8-1.3l1.3-2c0.3,0.3,0.7,0.5,1,0.7c0.4,0.2,0.9,0.3,1.3,0.3c0.2,0,0.7,0,0.9-0.2
					c0.2-0.1,0.3-0.4,0.3-0.6c0-0.2-0.1-0.4-0.3-0.5c-0.2-0.1-0.5-0.2-0.9-0.3l-0.8-0.2c-0.5-0.2-1.1-0.5-1.5-0.9
					c-0.4-0.5-0.7-1-0.7-1.7c0-0.9,0.4-1.7,0.9-2.2c0.8-0.8,2-0.9,2.8-0.9c1.4,0,2.4,0.4,3.1,0.8L391.9,29.3z"/>
				<path class="st10" d="M398.4,29.3v6.9h-3v-6.9h-1.1v-2.4h1.1V25c0-1,0.1-2.2,1-3.3c0.6-0.7,1.5-1.1,2.6-1.1
					c0.7,0,1.2,0.1,1.7,0.3v2.6c-0.3-0.2-0.8-0.4-1.2-0.4c-0.5,0-0.8,0.2-0.9,0.4c-0.3,0.4-0.3,1.2-0.3,1.6v1.6h2.4v2.4H398.4z"/>
				<path class="st10" d="M411.3,32.1h-7c0,0.5,0.2,1.2,0.6,1.6c0.5,0.5,1.1,0.6,1.6,0.6c0.4,0,0.9-0.1,1.2-0.3c0,0,0.4-0.3,0.7-0.8
					l2.9,0.3c-0.4,1.3-1.3,2-1.8,2.4c-0.9,0.5-1.9,0.7-3,0.7c-1.4,0-2.6-0.3-3.7-1.3c-0.8-0.8-1.4-2.1-1.4-3.6
					c0-1.3,0.5-2.7,1.4-3.7c1.1-1.1,2.5-1.3,3.6-1.3c1.1,0,2.6,0.2,3.7,1.4c1.1,1.2,1.3,2.6,1.3,3.8V32.1z M408.5,30.3
					c0-0.1-0.2-0.7-0.6-1.1c-0.3-0.3-0.8-0.5-1.4-0.5c-0.8,0-1.2,0.3-1.5,0.6c-0.2,0.3-0.4,0.6-0.5,1H408.5z"/>
				<path class="st10" d="M413,26.9h3v1.5c0.3-0.5,0.7-1,1.2-1.3c0.5-0.3,1-0.4,1.6-0.4c0.4,0,0.7,0,1,0.1l-0.2,2.8
					c-0.4-0.2-0.8-0.3-1.4-0.3c-0.7,0-1.1,0.2-1.5,0.6c-0.7,0.7-0.7,1.7-0.7,2.5v3.8h-3V26.9z"/>
			</g>
		</g>
	</g>
	<g>
		<g>
			<path class="st11" d="M1096.9,24.3c-0.5,0.1-0.9,0.1-1.4,0.1c-5.6,0-10.2-4.6-10.2-10.2c0-5.6,4.6-10.2,10.2-10.2
				c5.1,0,9.4,3.8,10.1,8.8c0.5-0.2,1-0.4,1.5-0.5c-0.9-5.6-5.8-9.9-11.6-9.9c-6.5,0-11.8,5.3-11.8,11.8S1089,26,1095.5,26
				c0.4,0,0.9,0,1.3-0.1c0-0.1,0-0.1,0-0.2C1096.8,25.3,1096.8,24.8,1096.9,24.3z"/>
			<path class="st11" d="M1101.1,15.8c-0.2-1.2-1.2-1.8-2-2c0.6-0.3,1.2-1,1.2-2.1c0-1.5-1.5-2.7-3.1-2.7c-0.1,0,0,0-0.2,0V6.8
				l-1.4,0l0,2.2l-1.1,0l0-2.2l-1.4,0l0,2.2l-2.8,0l0,1.7l1.3,0c0.3,0,0.5,0.3,0.5,0.6l0,6.1c0,0.3-0.2,0.6-0.5,0.6h-0.9l-0.3,1.7
				l2.8,0l0,2.2l1.4,0l0-2.2h1.1v2.2h1.4l0-2.2c0.5,0,1,0,1.4-0.2C1099,18.1,1100,16.8,1101.1,15.8z M1094.5,10.7c0,0,0.2,0,1.6,0
				c0.8,0,1.3,0.5,1.3,1.1s-0.5,1.1-1.3,1.1c-0.7,0-1.6,0-1.6,0L1094.5,10.7z M1096.3,17.9c-0.9,0-1.9,0-1.9,0s0-3.1,0-3.1
				c0,0,0.4,0,1.9,0c1.1,0,1.8,0.6,1.8,1.6C1098.1,17.3,1097.5,17.9,1096.3,17.9z"/>
			<g>
				<path class="st8" d="M1110.6,14c-6.5,0-11.8,5.3-11.8,11.8s5.3,11.8,11.8,11.8c6.5,0,11.8-5.3,11.8-11.8S1117.1,14,1110.6,14z
					 M1110.6,35.9c-5.6,0-10.2-4.6-10.2-10.2c0-5.6,4.6-10.2,10.2-10.2c5.6,0,10.2,4.6,10.2,10.2
					C1120.8,31.4,1116.3,35.9,1110.6,35.9z"/>
				<polygon class="st8" points="1105.3,25.8 1110.6,29.1 1116,25.8 1110.6,16.8 				"/>
				<polygon class="st8" points="1105.3,26.9 1110.6,34.7 1116,26.9 1110.6,30.2 				"/>
			</g>
		</g>
		<g>
			<path class="st11" d="M1140.3,24.4c-0.9,0.5-2,0.8-3.6,0.8c-2.5,0-4.1-0.9-5.3-2c-1.7-1.6-2.3-3.4-2.3-5.6c0-2.6,1.1-4.5,2.3-5.7
				c1.5-1.4,3.3-1.9,5.3-1.9c1,0,2.2,0.2,3.6,0.9v3.3c-1.3-1.5-3-1.6-3.5-1.6c-2.9,0-4.8,2.4-4.8,5.1c0,3.2,2.5,5,4.9,5
				c1.4,0,2.5-0.6,3.4-1.6V24.4z"/>
			<path class="st11" d="M1142.5,15.5h2.7v1.4c0.4-0.8,1-1.2,1.2-1.3c0.4-0.3,0.9-0.4,1.6-0.4c0.5,0,0.8,0.1,1.1,0.2l-0.3,2.5
				c-0.3-0.2-0.7-0.3-1.2-0.3c-0.5,0-1.2,0.1-1.8,0.8c-0.5,0.6-0.5,1.4-0.5,2.1v4.5h-2.7V15.5z"/>
			<path class="st11" d="M1154.3,23.5l-4.5-8h3.1l2.9,5.4l2.6-5.4h3l-7.6,14.4h-3L1154.3,23.5z"/>
			<path class="st11" d="M1165.4,29.9h-2.7V15.5h2.7v1.2c0.4-0.6,1.3-1.5,3.1-1.5c0.8,0,2.2,0.2,3.2,1.3c0.7,0.7,1.4,1.9,1.4,3.7
				c0,2.1-0.9,3.3-1.5,3.8c-0.7,0.7-1.8,1.2-3.2,1.2c-0.7,0-2-0.1-3-1.5V29.9z M1166.1,18.2c-0.6,0.5-0.9,1.2-0.9,2
				c0,0.9,0.3,1.6,0.9,2c0.3,0.3,0.9,0.6,1.7,0.6c0.9,0,1.4-0.3,1.8-0.7c0.6-0.5,0.8-1.3,0.8-2c0-0.7-0.3-1.5-0.8-2
				c-0.5-0.4-1.2-0.7-1.8-0.7C1167.1,17.5,1166.5,17.7,1166.1,18.2z"/>
			<path class="st11" d="M1177.8,17.8v7.2h-2.7v-7.2h-1v-2.3h1v-3.2h2.7v3.2h1.8v2.3H1177.8z"/>
			<path class="st11" d="M1189.8,16.5c0.9,0.8,1.6,2.2,1.6,3.7c0,1.5-0.7,2.8-1.6,3.7c-0.8,0.7-2,1.3-3.8,1.3c-1.8,0-3-0.6-3.8-1.3
				c-0.9-0.8-1.6-2.2-1.6-3.7c0-1.5,0.7-2.9,1.6-3.7c0.8-0.7,2-1.3,3.8-1.3C1187.8,15.2,1189,15.8,1189.8,16.5z M1188.6,20.2
				c0-1.5-1.1-2.7-2.7-2.7c-1.5,0-2.7,1.2-2.7,2.7c0,1.4,1.1,2.7,2.7,2.7C1187.5,22.9,1188.6,21.7,1188.6,20.2z"/>
		</g>
	</g>
</g>
</svg>
